<svg xmlns="http://www.w3.org/2000/svg" viewBox="0 0 200 200" width="200" height="200">
  <defs>
    <!-- Gradient for main building -->
    <linearGradient id="buildingGradient" x1="0%" y1="0%" x2="0%" y2="100%">
      <stop offset="0%" style="stop-color:#1e40af;stop-opacity:1" />
      <stop offset="100%" style="stop-color:#3b82f6;stop-opacity:1" />
    </linearGradient>
    
    <!-- Gradient for accent -->
    <linearGradient id="accentGradient" x1="0%" y1="0%" x2="100%" y2="0%">
      <stop offset="0%" style="stop-color:#06b6d4;stop-opacity:1" />
      <stop offset="100%" style="stop-color:#0891b2;stop-opacity:1" />
    </linearGradient>
    
    <!-- Shadow filter -->
    <filter id="shadow" x="-50%" y="-50%" width="200%" height="200%">
      <feDropShadow dx="2" dy="4" stdDeviation="3" flood-color="#000000" flood-opacity="0.1"/>
    </filter>
  </defs>
  
  <!-- Main geometric building form -->
  <g filter="url(#shadow)">
    <!-- Central tower -->
    <rect x="85" y="50" width="30" height="90" fill="url(#buildingGradient)" rx="3"/>
    
    <!-- Left wing -->
    <rect x="60" y="70" width="25" height="70" fill="#475569" rx="2"/>
    
    <!-- Right wing -->
    <rect x="115" y="65" width="25" height="75" fill="#475569" rx="2"/>
    
    <!-- Geometric accent on central tower -->
    <rect x="85" y="50" width="30" height="15" fill="url(#accentGradient)" rx="3"/>
    
    <!-- Modern window pattern -->
    <g opacity="0.9">
      <!-- Central tower windows -->
      <rect x="90" y="75" width="4" height="12" fill="white" rx="1"/>
      <rect x="96" y="75" width="4" height="12" fill="white" rx="1"/>
      <rect x="106" y="75" width="4" height="12" fill="white" rx="1"/>
      
      <rect x="90" y="95" width="4" height="12" fill="white" rx="1"/>
      <rect x="96" y="95" width="4" height="12" fill="#fbbf24" rx="1"/>
      <rect x="106" y="95" width="4" height="12" fill="white" rx="1"/>
      
      <rect x="90" y="115" width="4" height="12" fill="white" rx="1"/>
      <rect x="96" y="115" width="4" height="12" fill="white" rx="1"/>
      <rect x="106" y="115" width="4" height="12" fill="#34d399" rx="1"/>
      
      <!-- Left wing windows -->
      <rect x="66" y="80" width="3" height="8" fill="white" rx="0.5"/>
      <rect x="72" y="80" width="3" height="8" fill="white" rx="0.5"/>
      <rect x="78" y="80" width="3" height="8" fill="white" rx="0.5"/>
      
      <rect x="66" y="95" width="3" height="8" fill="#f472b6" rx="0.5"/>
      <rect x="72" y="95" width="3" height="8" fill="white" rx="0.5"/>
      <rect x="78" y="95" width="3" height="8" fill="white" rx="0.5"/>
      
      <rect x="66" y="110" width="3" height="8" fill="white" rx="0.5"/>
      <rect x="72" y="110" width="3" height="8" fill="white" rx="0.5"/>
      <rect x="78" y="110" width="3" height="8" fill="white" rx="0.5"/>
      
      <!-- Right wing windows -->
      <rect x="120" y="75" width="3" height="8" fill="white" rx="0.5"/>
      <rect x="126" y="75" width="3" height="8" fill="white" rx="0.5"/>
      <rect x="132" y="75" width="3" height="8" fill="#a78bfa" rx="0.5"/>
      
      <rect x="120" y="90" width="3" height="8" fill="white" rx="0.5"/>
      <rect x="126" y="90" width="3" height="8" fill="white" rx="0.5"/>
      <rect x="132" y="90" width="3" height="8" fill="white" rx="0.5"/>
      
      <rect x="120" y="105" width="3" height="8" fill="white" rx="0.5"/>
      <rect x="126" y="105" width="3" height="8" fill="#fb7185" rx="0.5"/>
      <rect x="132" y="105" width="3" height="8" fill="white" rx="0.5"/>
    </g>
  </g>
  
  <!-- Modern connecting elements -->
  <g opacity="0.6">
    <circle cx="100" cy="35" r="6" fill="none" stroke="url(#accentGradient)" stroke-width="2"/>
    <circle cx="100" cy="35" r="2" fill="url(#accentGradient)"/>
    
    <!-- Subtle connection lines -->
    <path d="M 75 85 Q 100 75 125 80" stroke="#06b6d4" stroke-width="1.5" fill="none" opacity="0.4"/>
    <path d="M 70 100 Q 100 165 130 105" stroke="#0891b2" stroke-width="1.5" fill="none" opacity="0.4"/>
  </g>
  
  <!-- Modern base -->
  <rect x="50" y="140" width="100" height="4" fill="#e2e8f0" rx="2"/>
  
  <!-- Geometric accent elements -->
  <rect x="45" y="160" width="110" height="2" fill="url(#accentGradient)" rx="1"/>
</svg>